<svg width="36" height="29" viewBox="0 0 36 29" fill="none" xmlns="http://www.w3.org/2000/svg">
<path d="M35 25C35 25.7956 34.6418 26.5587 34.0042 27.1213C33.3665 27.6839 32.5017 28 31.6 28H4.4C3.49826 28 2.63346 27.6839 1.99584 27.1213C1.35821 26.5587 1 25.7956 1 25V4C1 3.20435 1.35821 2.44129 1.99584 1.87868C2.63346 1.31607 3.49826 1 4.4 1H12.9L16.3 5.5H31.6C32.5017 5.5 33.3665 5.81607 34.0042 6.37868C34.6418 6.94129 35 7.70435 35 8.5V25Z" stroke="#8CA4B1" stroke-width="2" stroke-linecap="round" stroke-linejoin="round"/>
<path d="M18 13V22" stroke="#8CA4B1" stroke-width="2" stroke-linecap="round" stroke-linejoin="round"/>
<path d="M13 17H23" stroke="#8CA4B1" stroke-width="2" stroke-linecap="round" stroke-linejoin="round"/>
</svg>
